<svg xmlns="http://www.w3.org/2000/svg" xmlns:xlink="http://www.w3.org/1999/xlink" width="500" zoomAndPan="magnify" viewBox="0 0 375 374.999991" height="500" preserveAspectRatio="xMidYMid meet" version="1.0"><defs><g/></defs><rect x="-37.5" width="450" fill="#ffffff" y="-37.499999" height="449.999989" fill-opacity="1"/><rect x="-37.5" width="450" fill="#ffffff" y="-37.499999" height="449.999989" fill-opacity="1"/><g fill="#000e4d" fill-opacity="1"><g transform="translate(117.174521, 303.41561)"><g><path d="M 22.703125 -16.71875 C 24.097656 -16 25.179688 -14.976562 25.953125 -13.65625 C 26.722656 -12.34375 27.109375 -10.84375 27.109375 -9.15625 C 27.109375 -7.46875 26.660156 -5.925781 25.765625 -4.53125 C 24.878906 -3.144531 23.671875 -2.039062 22.140625 -1.21875 C 20.617188 -0.40625 18.953125 0 17.140625 0 L 3.625 0 L 3.625 -31.734375 L 16.765625 -31.734375 C 18.578125 -31.734375 20.203125 -31.375 21.640625 -30.65625 C 23.078125 -29.945312 24.210938 -28.972656 25.046875 -27.734375 C 25.878906 -26.492188 26.296875 -25.109375 26.296875 -23.578125 C 26.296875 -22.210938 25.976562 -20.925781 25.34375 -19.71875 C 24.707031 -18.507812 23.828125 -17.507812 22.703125 -16.71875 Z M 19.625 -22.484375 C 19.625 -23.484375 19.304688 -24.296875 18.671875 -24.921875 C 18.035156 -25.554688 17.175781 -25.875 16.09375 -25.875 L 10.375 -25.875 L 10.375 -19.125 L 16.09375 -19.125 C 17.175781 -19.125 18.035156 -19.441406 18.671875 -20.078125 C 19.304688 -20.710938 19.625 -21.515625 19.625 -22.484375 Z M 16.453125 -6.296875 C 17.597656 -6.296875 18.507812 -6.628906 19.1875 -7.296875 C 19.875 -7.960938 20.21875 -8.820312 20.21875 -9.875 C 20.21875 -10.90625 19.875 -11.753906 19.1875 -12.421875 C 18.507812 -13.085938 17.597656 -13.421875 16.453125 -13.421875 L 10.375 -13.421875 L 10.375 -6.296875 Z M 16.453125 -6.296875 "/></g></g></g><g fill="#000e4d" fill-opacity="1"><g transform="translate(155.333347, 303.41561)"><g><path d="M 10.515625 -6.390625 L 23.15625 -6.390625 L 23.15625 0 L 3.625 0 L 3.625 -31.734375 L 22.671875 -31.734375 L 22.671875 -25.390625 L 10.515625 -25.390625 L 10.515625 -19.125 L 21.484375 -19.125 L 21.484375 -12.921875 L 10.515625 -12.921875 Z M 10.515625 -6.390625 "/></g></g></g><g fill="#000e4d" fill-opacity="1"><g transform="translate(189.730933, 303.41561)"><g><path d="M 25.515625 -31.734375 L 25.515625 -25.34375 L 16.6875 -25.34375 L 16.6875 0 L 9.796875 0 L 9.796875 -25.34375 L 1 -25.34375 L 1 -31.734375 Z M 25.515625 -31.734375 "/></g></g></g><g fill="#000e4d" fill-opacity="1"><g transform="translate(225.261413, 303.41561)"><g><path d="M 24.703125 0 L 22.484375 -6.03125 L 9.84375 -6.03125 L 7.65625 0 L 0.40625 0 L 12.828125 -31.734375 L 19.3125 -31.734375 L 32.140625 0 Z M 16.140625 -23.34375 L 12.015625 -12.015625 L 20.3125 -12.015625 Z M 16.140625 -23.34375 "/></g></g></g><path fill="#38b6ff" d="M 116.386719 114.945312 C 157.710938 0.0351562 286.886719 85.636719 222.851562 174.113281 C 223.738281 176.472656 224.179688 179.054688 224.179688 181.671875 C 224.179688 193.875 214.335938 203.71875 202.132812 203.71875 C 189.929688 203.71875 180.089844 193.875 180.089844 181.671875 C 180.089844 169.46875 189.929688 159.625 202.132812 159.625 C 203.386719 159.625 204.605469 159.664062 205.785156 159.882812 C 242.023438 100.015625 174.449219 22.855469 125.160156 110.777344 C 122.171875 111.996094 119.222656 113.359375 116.386719 114.945312 Z M 116.386719 114.945312 " fill-opacity="1" fill-rule="nonzero"/><path fill="#5271ff" d="M 245.007812 125.820312 C 323.863281 219.054688 185.101562 288.175781 140.496094 188.492188 C 138.023438 188.050781 135.628906 187.164062 133.34375 185.875 C 122.800781 179.753906 119.1875 166.296875 125.234375 155.753906 C 131.351562 145.210938 144.882812 141.597656 155.351562 147.644531 C 165.894531 153.726562 169.507812 167.21875 163.460938 177.761719 C 162.871094 178.871094 162.136719 179.828125 161.398438 180.785156 C 195.128906 242.128906 295.773438 222.1875 244.234375 135.515625 C 244.675781 132.273438 244.933594 129.0625 245.007812 125.820312 Z M 245.007812 125.820312 " fill-opacity="1" fill-rule="nonzero"/><path fill="#71ddff" d="M 171.242188 231.808594 C 51.132812 253.449219 60.644531 98.761719 169.25 109.96875 C 170.910156 108.050781 172.789062 106.429688 175.113281 105.101562 C 185.65625 98.980469 199.183594 102.59375 205.230469 113.136719 C 211.351562 123.683594 207.738281 137.210938 197.195312 143.257812 C 186.652344 149.378906 173.121094 145.726562 167.074219 135.222656 C 166.410156 134.113281 165.933594 133.046875 165.488281 131.902344 C 95.480469 130.429688 62.449219 227.605469 163.242188 226.277344 C 165.820312 228.269531 168.4375 230.113281 171.242188 231.808594 Z M 171.242188 231.808594 " fill-opacity="1" fill-rule="nonzero"/></svg>